<?xml version="1.0" encoding="UTF-8" standalone="no"?>
<svg
   version="1.1"
   id="Layer_1"
   x="0px"
   y="0px"
   width="100%"
   viewBox="0 0 1078 1078"
   enable-background="new 0 0 1078 1078"
   xml:space="preserve"
   sodipodi:docname="avokia_modf.svg"
   inkscape:version="1.4.2 (f4327f4, 2025-05-13)"
   xmlns:inkscape="http://www.inkscape.org/namespaces/inkscape"
   xmlns:sodipodi="http://sodipodi.sourceforge.net/DTD/sodipodi-0.dtd"
   xmlns="http://www.w3.org/2000/svg"
   xmlns:svg="http://www.w3.org/2000/svg"><defs
   id="defs35" /><sodipodi:namedview
   id="namedview35"
   pagecolor="#ffffff"
   bordercolor="#000000"
   borderopacity="0.25"
   inkscape:showpageshadow="2"
   inkscape:pageopacity="0.0"
   inkscape:pagecheckerboard="0"
   inkscape:deskcolor="#d1d1d1"
   inkscape:zoom="0.70710678"
   inkscape:cx="668.92301"
   inkscape:cy="614.47579"
   inkscape:window-width="1920"
   inkscape:window-height="1057"
   inkscape:window-x="-8"
   inkscape:window-y="-8"
   inkscape:window-maximized="1"
   inkscape:current-layer="Layer_1" />

<path
   fill="#141E78"
   opacity="1.000000"
   stroke="none"
   d=" M530.920044,1006.054749   C527.474609,1006.343811 524.015015,1006.992188 520.586365,1006.856689   C508.665833,1006.385376 496.735901,1005.892456 484.847626,1004.934998   C472.002319,1003.900452 459.156036,1002.657104 446.389343,1000.922302   C429.237671,998.591614 412.038818,996.316833 395.080322,992.919556   C364.370117,986.767212 334.611694,977.454224 305.901978,964.699341   C281.277100,953.759277 258.577515,939.765320 237.615036,923.037292   C219.468613,908.556519 203.535614,891.874207 189.898056,872.903625   C176.888504,854.806702 166.157318,835.617737 159.247086,814.483887   C153.839111,797.944458 149.500015,781.067932 149.077148,763.475281   C148.741730,749.521179 147.486176,735.512512 148.315262,721.628113   C149.206085,706.709412 151.145721,691.713318 154.272751,677.103088   C158.315567,658.214233 163.088867,639.374207 169.195328,621.062622   C176.237289,599.945740 184.602539,579.227661 193.285522,558.714111   C200.023819,542.794800 208.146744,527.462402 215.628448,511.856750   C223.533875,495.367249 231.839920,479.052094 239.176651,462.312622   C246.613358,445.345062 253.781906,428.192291 259.771454,410.677277   C265.715302,393.296021 269.922546,375.394897 272.219147,357.012085   C275.409241,331.477478 278.913727,305.941650 283.560059,280.640808   C288.218597,255.273697 296.851349,230.990311 309.795959,208.598709   C315.834991,198.152390 323.361206,188.508865 330.743866,178.909485   C341.998657,164.275238 356.148712,152.668777 371.661896,142.887314   C392.484894,129.757858 414.718170,119.599350 438.727692,113.702423   C450.726868,110.755333 462.719940,107.702354 474.847931,105.390587   C482.446320,103.942230 490.290527,103.783249 498.946777,103.066528   C508.265533,103.069183 516.661926,103.051041 525.058350,103.032898   C543.545898,103.271393 561.477905,107.100220 579.373535,111.287285   C598.704590,115.810219 616.929443,123.250084 634.296143,132.640900   C650.282715,141.285461 665.600403,151.096985 679.005981,163.538376   C687.268982,171.207153 695.938538,178.559998 703.343872,187.003372   C715.452881,200.809723 726.055176,215.771988 735.103271,231.879410   C743.771973,247.311234 750.693054,263.517609 755.569092,280.335815   C763.493530,307.668396 769.560242,335.533997 777.090698,362.988220   C782.562134,382.935699 788.022949,403.015747 795.542908,422.232758   C802.166931,439.160461 810.823059,455.452637 820.046448,471.165710   C833.549072,494.168915 848.561096,516.280334 862.550171,539.005554   C874.232727,557.983887 885.687073,577.118652 896.656311,596.515747   C906.858276,614.555969 914.668701,633.664734 920.853516,653.517395   C928.225464,677.180420 931.086914,701.357605 929.805237,725.905396   C928.639954,748.225098 924.118958,770.013916 916.590393,791.202820   C908.866089,812.942749 898.774963,833.397034 886.124878,852.657288   C872.806335,872.935303 857.379395,891.505676 839.602173,907.922668   C818.973877,926.972595 796.273438,943.305420 771.368958,956.481201   C732.720093,976.928284 691.563293,989.978699 648.688782,997.647949   C632.444702,1000.553711 615.945557,1002.123657 599.517944,1003.884888   C587.017395,1005.225037 574.446045,1005.905518 561.161926,1006.585083   C550.585144,1006.212036 540.752563,1006.133362 530.920044,1006.054749  M755.246399,420.235992   C754.857300,419.214020 754.468140,418.192047 754.044495,416.543060   C753.782532,415.997772 753.520569,415.452484 753.170044,414.122650   C751.851318,410.226318 750.532654,406.329987 749.222351,402.097687   C749.222351,402.097687 749.016907,401.831726 749.057495,401.488983   C749.057495,401.488983 748.876221,401.195312 748.875488,400.570648   C748.609070,400.024689 748.342712,399.478699 748.079651,398.144623   C746.444092,393.024170 744.808533,387.903687 743.097229,382.941528   C743.097229,382.941528 743.255676,383.017029 743.238159,382.241516   C742.890198,381.299530 742.542236,380.357513 742.236877,379.138184   C742.236877,379.138184 742.050049,378.928833 742.055420,378.155426   C741.098511,375.214447 740.141602,372.273499 739.193054,368.840790   C739.143982,368.512665 739.039185,368.203369 738.882019,367.173340   C737.956299,364.443939 737.030518,361.714569 736.132812,358.910400   C736.132812,358.910400 736.058167,358.881989 736.074463,358.101746   C733.510925,349.631622 730.947388,341.161499 728.351990,332.804504   C728.351990,332.804504 728.465393,332.835327 728.345093,332.075928   C727.637207,329.991699 726.929321,327.907471 726.124207,325.931061   C726.124207,325.931061 726.246826,325.853210 726.202209,325.144684   C725.753479,323.810333 725.304810,322.476013 724.802246,320.378174   C721.498901,310.434570 718.427734,300.406586 714.849243,290.562988   C703.670715,259.813385 690.749023,229.941833 671.154114,203.365768   C648.118103,172.122711 618.591797,150.128342 580.769226,140.455460   C550.637939,132.749573 519.898315,131.784561 488.990326,134.504135   C466.926941,136.445496 445.557770,141.251923 425.323761,150.326996   C388.478271,166.852371 363.533966,195.269897 346.110870,230.908401   C329.733643,264.407684 320.875885,300.251099 314.040070,336.645966   C310.140625,357.407074 307.367493,378.387238 303.177094,399.084503   C296.362823,432.741577 283.182037,464.221802 268.500916,495.085541   C252.268311,529.210999 235.058731,562.896423 219.717590,597.414856   C200.611832,640.403931 188.858261,685.368652 190.086777,732.914917   C191.394424,783.523682 208.724442,827.954712 242.986176,865.382996   C275.207794,900.582458 315.387421,923.684692 359.622070,940.196106   C394.541382,953.230530 430.667725,961.541443 467.672913,965.805725   C481.529663,967.402527 495.501740,967.998291 510.203705,969.514343   C535.293640,969.158997 560.386658,968.936035 585.471375,968.352722   C591.520630,968.212036 597.542175,966.877991 603.948364,966.571960   C604.332214,966.486511 604.716064,966.401062 605.970886,966.374817   C613.188904,965.294739 620.406860,964.214661 628.066528,963.510925   C628.422791,963.386841 628.779053,963.262695 629.951294,963.188293   C632.935791,962.671082 635.920349,962.153931 639.687744,961.636353   C669.841431,956.003174 699.414490,948.365784 727.954102,936.902039   C764.349670,922.282837 798.212341,903.542786 824.849487,874.215576   C846.503906,850.374146 862.602295,822.641479 875.516968,793.229248   C891.784363,756.181396 896.569824,717.767151 886.768188,678.091858   C879.881042,650.214355 867.556458,624.610840 853.397644,599.818176   C825.589905,551.125977 792.990295,505.248627 768.093201,454.068115   C765.149780,446.811310 762.206299,439.554474 759.308044,432.066040   C759.308044,432.066040 759.119141,431.924652 759.092102,431.211365   C758.482239,429.694611 757.872375,428.177887 757.200012,426.213745   C757.200012,426.213745 756.950867,425.836853 756.941040,425.164795   C756.366943,423.696777 755.792847,422.228760 755.182495,420.882294   C755.182495,420.882294 755.304199,420.917999 755.246399,420.235992  z"
   id="path2" />
<path
   fill="#585D9C"
   opacity="1.000000"
   stroke="none"
   d=" M531.155457,1006.422913   C540.752563,1006.133362 550.585144,1006.212036 560.738403,1006.569702   C551.169678,1006.829468 541.280273,1006.810303 531.155457,1006.422913  z"
   id="path3" />
<path
   fill="#75789F"
   opacity="1.000000"
   stroke="none"
   d=" M524.883545,102.621826   C516.661926,103.051041 508.265533,103.069183 499.397400,103.043182   C499.739716,102.648895 500.554077,101.994934 501.367676,101.995819   C509.148102,102.004234 516.928406,102.123375 524.883545,102.621826  z"
   id="path4" />
<path
   fill="#5CE0E6"
   opacity="1.000000"
   stroke="none"
   d=" M742.050049,378.928833   C742.050049,378.928833 742.236877,379.138184 742.220093,379.659851   C742.554138,381.126678 742.904907,382.071869 743.255676,383.017029   C743.255676,383.017029 743.097229,382.941528 743.097595,383.299438   C744.757385,388.749146 746.416870,393.840942 748.076355,398.932709   C748.342712,399.478699 748.609070,400.024689 748.837769,400.965424   C748.778625,401.559845 748.850952,401.717010 749.016907,401.831726   C749.016907,401.831726 749.222351,402.097687 749.175293,402.713043   C750.505127,407.187988 751.881897,411.047577 753.258667,414.907166   C753.520569,415.452484 753.782532,415.997772 753.934326,417.083069   C754.317566,418.721375 754.810913,419.819672 755.304199,420.917999   C755.304199,420.917999 755.182495,420.882294 755.159790,421.203308   C755.741699,422.961823 756.346313,424.399323 756.950867,425.836853   C756.950867,425.836853 757.200012,426.213745 757.192139,426.810150   C757.829163,428.912598 758.474182,430.418610 759.119141,431.924652   C759.119141,431.924652 759.308044,432.066040 759.229736,432.640259   C761.341858,439.876740 763.478333,446.557983 765.799255,453.174500   C766.054688,453.902557 767.367432,454.259766 768.189758,454.788971   C792.990295,505.248627 825.589905,551.125977 853.397644,599.818176   C867.556458,624.610840 879.881042,650.214355 886.768188,678.091858   C896.569824,717.767151 891.784363,756.181396 875.516968,793.229248   C862.602295,822.641479 846.503906,850.374146 824.849487,874.215576   C798.212341,903.542786 764.349670,922.282837 727.954102,936.902039   C699.414490,948.365784 669.841431,956.003174 638.946655,961.515503   C635.182190,961.976013 632.158752,962.557312 629.135315,963.138672   C628.779053,963.262695 628.422791,963.386841 627.349976,963.297974   C619.455627,964.161865 612.277771,965.238647 605.099915,966.315552   C604.716064,966.401062 604.332214,966.486511 603.278625,966.320435   C600.614624,966.126709 598.617310,966.132263 596.626648,966.250488   C581.537292,967.147339 566.459900,968.385071 551.357788,968.884888   C537.392395,969.347107 523.401123,969.026428 509.421234,969.050537   C495.501740,967.998291 481.529663,967.402527 467.672913,965.805725   C430.667725,961.541443 394.541382,953.230530 359.622070,940.196106   C315.387421,923.684692 275.207794,900.582458 242.986176,865.382996   C208.724442,827.954712 191.394424,783.523682 190.086777,732.914917   C188.858261,685.368652 200.611832,640.403931 219.717590,597.414856   C235.058731,562.896423 252.268311,529.210999 268.500916,495.085541   C283.182037,464.221802 296.362823,432.741577 303.177094,399.084503   C307.367493,378.387238 310.140625,357.407074 314.040070,336.645966   C320.875885,300.251099 329.733643,264.407684 346.110870,230.908401   C363.533966,195.269897 388.478271,166.852371 425.323761,150.326996   C445.557770,141.251923 466.926941,136.445496 488.990326,134.504135   C519.898315,131.784561 550.637939,132.749573 580.769226,140.455460   C618.591797,150.128342 648.118103,172.122711 671.154114,203.365768   C690.749023,229.941833 703.670715,259.813385 714.849243,290.562988   C718.427734,300.406586 721.498901,310.434570 724.706299,321.024139   C725.155884,323.064484 725.701355,324.458862 726.246826,325.853210   C726.246826,325.853210 726.124207,325.931061 726.144653,326.269409   C726.931885,328.683624 727.698669,330.759460 728.465454,332.835327   C728.465393,332.835327 728.351990,332.804504 728.295105,333.190796   C730.353760,341.580902 732.449402,349.590149 734.630127,357.576233   C734.773743,358.102234 735.567017,358.450867 736.058167,358.882019   C736.058167,358.881989 736.132812,358.910400 736.086792,359.356384   C736.986755,362.505890 737.932739,365.209442 738.878662,367.912964   C739.039185,368.203369 739.143982,368.512665 739.159973,369.529175   C740.101257,373.121338 741.075623,376.025085 742.050049,378.928833  M491.590515,932.210510   C492.420319,932.456177 493.250092,932.701782 494.597504,933.009155   C494.768463,933.040344 494.939423,933.071472 495.672729,933.548950   C498.163727,933.988647 500.654724,934.428345 503.083344,934.894287   C503.083344,934.894287 503.066010,934.828857 503.613312,935.344788   C505.152679,935.880798 506.659027,936.555542 508.236572,936.931274   C524.749756,940.864441 541.576050,940.390381 558.314392,939.819763   C567.348633,939.511658 576.354248,937.717590 585.313049,936.233521   C587.966980,935.793823 590.417603,934.127380 593.550720,932.564819   C607.703369,926.852234 622.553711,922.425171 635.880737,915.191528   C679.755920,891.377197 710.166565,855.425842 727.817810,808.724243   C739.368958,778.162354 743.882935,746.534241 740.772095,714.048096   C736.130493,665.575806 717.823364,622.917175 684.216919,587.388550   C651.993408,553.321960 612.783569,531.845093 565.993530,526.225708   C509.880402,519.486633 459.621460,534.245178 416.491119,571.086670   C375.451752,606.142029 352.373444,651.203064 345.277527,704.399841   C342.226166,727.275330 343.410706,750.223755 348.038055,772.916992   C355.645569,810.225037 371.837585,843.277222 397.145691,871.773865   C420.046783,897.560303 447.881561,916.130554 480.472382,928.725464   C482.987854,929.469727 485.503296,930.213928 488.036224,930.960144   C488.036224,930.960144 488.052032,930.968384 488.609314,931.316345   C489.461182,931.495239 490.313049,931.674194 491.095306,931.877197   C491.095306,931.877197 491.071594,931.807495 491.590515,932.210510  M624.788330,388.214172   C607.425232,398.422455 599.998718,417.003540 605.840942,435.620239   C611.290649,452.986084 629.016479,465.179443 646.783508,463.784088   C663.232483,462.492249 677.131470,451.478699 682.190918,435.727295   C687.129822,420.351349 682.204590,403.203278 669.839233,392.723145   C657.453064,382.225403 640.270081,380.369324 624.788330,388.214172  M428.229401,453.597626   C435.094910,436.904877 430.673004,418.263184 417.152679,406.900726   C403.653900,395.556396 384.040436,394.430725 369.269257,404.152649   C354.659027,413.768646 348.067413,431.686249 352.855408,448.769135   C357.217621,464.332825 371.253021,476.067902 387.489288,477.726776   C404.504578,479.465210 419.611816,470.728699 428.229401,453.597626  M524.501770,481.974274   C537.444214,480.601379 548.439087,475.324280 557.010864,465.436432   C571.132751,449.146271 574.917114,430.589233 568.422607,410.096466   C567.900757,408.450043 564.963562,407.569122 563.148804,406.332458   C562.619507,408.347870 561.496826,410.417023 561.673462,412.368530   C562.179016,417.954285 563.923889,423.493652 563.913635,429.048920   C563.870056,452.687225 547.568420,471.047760 523.926941,474.694763   C500.872955,478.251160 480.107422,465.167755 472.866302,442.591400   C470.209839,434.309052 470.073029,425.981049 471.451538,417.440125   C471.713287,415.818390 469.731750,413.834625 468.785278,412.017914   C467.347717,413.261292 465.138885,414.253510 464.634979,415.800903   C463.622223,418.910828 463.249390,422.312042 463.118011,425.613159   C461.938477,455.251862 485.330139,486.238342 524.501770,481.974274  z"
   id="path5" />
<path
   fill="#75CFF5"
   opacity="1.000000"
   stroke="none"
   d=" M509.812469,969.282471   C523.401123,969.026428 537.392395,969.347107 551.357788,968.884888   C566.459900,968.385071 581.537292,967.147339 596.626648,966.250488   C598.617310,966.132263 600.614624,966.126709 603.092651,966.080811   C597.542175,966.877991 591.520630,968.212036 585.471375,968.352722   C560.386658,968.936035 535.293640,969.158997 509.812469,969.282471  z"
   id="path6" />
<path
   fill="#6DC9EC"
   opacity="1.000000"
   stroke="none"
   d=" M736.066284,358.491882   C735.567017,358.450867 734.773743,358.102234 734.630127,357.576233   C732.449402,349.590149 730.353760,341.580902 728.311035,333.134216   C730.947388,341.161499 733.510925,349.631622 736.066284,358.491882  z"
   id="path7" />
<path
   fill="#6DC9EC"
   opacity="1.000000"
   stroke="none"
   d=" M768.141479,454.428528   C767.367432,454.259766 766.054688,453.902557 765.799255,453.174500   C763.478333,446.557983 761.341858,439.876740 759.207153,432.756042   C762.206299,439.554474 765.149780,446.811310 768.141479,454.428528  z"
   id="path8" />
<path
   fill="#75CFF5"
   opacity="1.000000"
   stroke="none"
   d=" M605.535400,966.345154   C612.277771,965.238647 619.455627,964.161865 627.129150,963.109863   C620.406860,964.214661 613.188904,965.294739 605.535400,966.345154  z"
   id="path9" />
<path
   fill="#6DC9EC"
   opacity="1.000000"
   stroke="none"
   d=" M748.078003,398.538666   C746.416870,393.840942 744.757385,388.749146 743.135498,383.220276   C744.808533,387.903687 746.444092,393.024170 748.078003,398.538666  z"
   id="path10" />
<path
   fill="#6DC9EC"
   opacity="1.000000"
   stroke="none"
   d=" M753.214355,414.514893   C751.881897,411.047577 750.505127,407.187988 749.171143,402.881042   C750.532654,406.329987 751.851318,410.226318 753.214355,414.514893  z"
   id="path11" />
<path
   fill="#6DC9EC"
   opacity="1.000000"
   stroke="none"
   d=" M738.880371,367.543152   C737.932739,365.209442 736.986755,362.505890 736.072815,359.393768   C737.030518,361.714569 737.956299,364.443939 738.880371,367.543152  z"
   id="path12" />
<path
   fill="#6DC9EC"
   opacity="1.000000"
   stroke="none"
   d=" M742.052734,378.542114   C741.075623,376.025085 740.101257,373.121338 739.155762,369.775055   C740.141602,372.273499 741.098511,375.214447 742.052734,378.542114  z"
   id="path13" />
<path
   fill="#75CFF5"
   opacity="1.000000"
   stroke="none"
   d=" M629.543335,963.163452   C632.158752,962.557312 635.182190,961.976013 638.555237,961.515686   C635.920349,962.153931 632.935791,962.671082 629.543335,963.163452  z"
   id="path14" />
<path
   fill="#6DC9EC"
   opacity="1.000000"
   stroke="none"
   d=" M728.405273,332.455627   C727.698669,330.759460 726.931885,328.683624 726.193298,326.215515   C726.929321,327.907471 727.637207,329.991699 728.405273,332.455627  z"
   id="path15" />
<path
   fill="#6DC9EC"
   opacity="1.000000"
   stroke="none"
   d=" M756.945923,425.500824   C756.346313,424.399323 755.741699,422.961823 755.177917,421.142548   C755.792847,422.228760 756.366943,423.696777 756.945923,425.500824  z"
   id="path16" />
<path
   fill="#6DC9EC"
   opacity="1.000000"
   stroke="none"
   d=" M759.105591,431.567993   C758.474182,430.418610 757.829163,428.912598 757.223389,427.033875   C757.872375,428.177887 758.482239,429.694611 759.105591,431.567993  z"
   id="path17" />
<path
   fill="#6DC9EC"
   opacity="1.000000"
   stroke="none"
   d=" M726.224487,325.498962   C725.701355,324.458862 725.155884,323.064484 724.733276,321.405884   C725.304810,322.476013 725.753479,323.810333 726.224487,325.498962  z"
   id="path18" />
<path
   fill="#6DC9EC"
   opacity="1.000000"
   stroke="none"
   d=" M755.275269,420.576996   C754.810913,419.819672 754.317566,418.721375 753.951660,417.396576   C754.468140,418.192047 754.857300,419.214020 755.275269,420.576996  z"
   id="path19" />
<path
   fill="#6DC9EC"
   opacity="1.000000"
   stroke="none"
   d=" M743.246948,382.629272   C742.904907,382.071869 742.554138,381.126678 742.198853,379.798492   C742.542236,380.357513 742.890198,381.299530 743.246948,382.629272  z"
   id="path20" />
<path
   fill="#6DC9EC"
   opacity="1.000000"
   stroke="none"
   d=" M749.037231,401.660339   C748.850952,401.717010 748.778625,401.559845 748.838135,401.277771   C748.876221,401.195312 749.057495,401.488983 749.037231,401.660339  z"
   id="path21" />
<path
   fill="#131D79"
   opacity="1.000000"
   stroke="none"
   d=" M495.110352,933.102600   C494.939423,933.071472 494.768463,933.040344 494.158569,932.687256   C492.836975,932.179382 491.954285,931.993408 491.071594,931.807495   C491.071594,931.807495 491.095306,931.877197 490.885193,931.633728   C489.800720,931.249634 488.926361,931.109009 488.052032,930.968384   C488.052032,930.968384 488.036224,930.960144 487.773010,930.716797   C485.058350,929.695129 482.606873,928.916809 480.155426,928.138428   C447.881561,916.130554 420.046783,897.560303 397.145691,871.773865   C371.837585,843.277222 355.645569,810.225037 348.038055,772.916992   C343.410706,750.223755 342.226166,727.275330 345.277527,704.399841   C352.373444,651.203064 375.451752,606.142029 416.491119,571.086670   C459.621460,534.245178 509.880402,519.486633 565.993530,526.225708   C612.783569,531.845093 651.993408,553.321960 684.216919,587.388550   C717.823364,622.917175 736.130493,665.575806 740.772095,714.048096   C743.882935,746.534241 739.368958,778.162354 727.817810,808.724243   C710.166565,855.425842 679.755920,891.377197 635.880737,915.191528   C622.553711,922.425171 607.703369,926.852234 592.850098,932.762329   C574.223206,937.438660 555.988586,939.670715 537.562134,938.758850   C526.026855,938.188049 514.562317,936.187744 503.066010,934.828857   C503.066010,934.828857 503.083344,934.894287 502.829346,934.634338   C500.087006,933.950500 497.598663,933.526550 495.110352,933.102600  M405.125305,812.029175   C427.602814,812.031189 450.080780,811.960510 472.557404,812.104004   C476.495819,812.129089 478.146515,811.183655 478.136292,806.860291   C478.006744,752.081665 477.990967,697.302429 478.118988,642.523804   C478.129303,638.107361 476.784454,636.820251 472.442902,636.860718   C449.634460,637.073181 426.823456,637.015076 403.522247,637.144958   C403.338531,639.951538 402.996643,642.758057 402.994537,645.564758   C402.954895,697.973328 402.934296,750.381958 403.002167,802.790466   C403.006165,805.868286 403.792542,808.945129 405.125305,812.029175  M569.133118,788.015015   C590.745850,787.984131 612.358582,787.953308 634.646423,787.928467   C635.704529,788.455994 637.327637,788.713318 637.729919,789.554443   C640.572937,795.499512 643.597351,801.420288 645.674072,807.645630   C646.900330,811.321655 648.723694,812.079102 652.116150,812.065186   C673.271545,811.978333 694.427490,812.045166 715.583252,812.035400   C717.013733,812.034729 718.444092,811.824524 720.244263,811.682556   C719.789124,810.353455 719.547729,809.420410 719.160828,808.552307   C712.188232,792.906921 705.169128,777.282166 698.219238,761.626709   C690.598145,744.459045 683.022217,727.271240 675.456055,710.079224   C670.880432,699.682190 666.398865,689.243774 661.806152,678.854370   C656.207031,666.188354 650.658508,653.496399 644.756958,640.971741   C643.915833,639.186707 641.223206,637.155273 639.367859,637.136108   C614.549927,636.879944 589.728455,636.988831 564.908081,636.921631   C562.145325,636.914185 560.960999,638.018311 559.901001,640.582520   C555.813171,650.471069 551.387756,660.220825 547.044373,670.002869   C541.429810,682.647766 535.702637,695.243103 530.153076,707.916382   C523.614746,722.848022 517.317017,737.885498 510.727203,752.794128   C503.400696,769.369263 495.836823,785.839294 488.441467,802.384277   C487.155762,805.260620 486.193207,808.281433 485.049011,811.321655   C486.256989,811.670166 486.731445,811.925964 487.206482,811.927063   C509.693817,811.979065 532.181824,812.079163 554.667114,811.879150   C556.120667,811.866150 558.107056,809.799072 558.899292,808.214417   C562.206970,801.598694 565.153076,794.802185 569.133118,788.015015  z"
   id="path22" />
<path
   fill="#121E79"
   opacity="1.000000"
   stroke="none"
   d=" M625.132935,388.072784   C640.270081,380.369324 657.453064,382.225403 669.839233,392.723145   C682.204590,403.203278 687.129822,420.351349 682.190918,435.727295   C677.131470,451.478699 663.232483,462.492249 646.783508,463.784088   C629.016479,465.179443 611.290649,452.986084 605.840942,435.620239   C599.998718,417.003540 607.425232,398.422455 625.132935,388.072784  z"
   id="path23" />
<path
   fill="#121E79"
   opacity="1.000000"
   stroke="none"
   d=" M428.100769,453.956604   C419.611816,470.728699 404.504578,479.465210 387.489288,477.726776   C371.253021,476.067902 357.217621,464.332825 352.855408,448.769135   C348.067413,431.686249 354.659027,413.768646 369.269257,404.152649   C384.040436,394.430725 403.653900,395.556396 417.152679,406.900726   C430.673004,418.263184 435.094910,436.904877 428.100769,453.956604  z"
   id="path24" />
<path
   fill="#0F2778"
   opacity="1.000000"
   stroke="none"
   d=" M524.061157,481.995911   C485.330139,486.238342 461.938477,455.251862 463.118011,425.613159   C463.249390,422.312042 463.622223,418.910828 464.634979,415.800903   C465.138885,414.253510 467.347717,413.261292 468.785278,412.017883   C469.731750,413.834625 471.713287,415.818390 471.451538,417.440125   C470.073029,425.981049 470.209839,434.309052 472.866302,442.591400   C480.107422,465.167755 500.872955,478.251160 523.926941,474.694763   C547.568420,471.047760 563.870056,452.687225 563.913635,429.048920   C563.923889,423.493652 562.179016,417.954285 561.673462,412.368530   C561.496826,410.417023 562.619507,408.347870 563.148804,406.332458   C564.963562,407.569122 567.900757,408.450043 568.422607,410.096466   C574.917114,430.589233 571.132751,449.146271 557.010864,465.436432   C548.439087,475.324280 537.444214,480.601379 524.061157,481.995911  z"
   id="path25" />
<path
   fill="#6CCEF0"
   opacity="1.000000"
   stroke="none"
   d=" M503.339661,935.086792   C514.562317,936.187744 526.026855,938.188049 537.562134,938.758850   C555.988586,939.670715 574.223206,937.438660 592.555420,932.991516   C590.417603,934.127380 587.966980,935.793823 585.313049,936.233521   C576.354248,937.717590 567.348633,939.511658 558.314392,939.819763   C541.576050,940.390381 524.749756,940.864441 508.236572,936.931274   C506.659027,936.555542 505.152679,935.880798 503.339661,935.086792  z"
   id="path26" />
<path
   fill="#6CCEF0"
   opacity="1.000000"
   stroke="none"
   d=" M480.313904,928.431946   C482.606873,928.916809 485.058350,929.695129 487.764282,930.715820   C485.503296,930.213928 482.987854,929.469727 480.313904,928.431946  z"
   id="path27" />
<path
   fill="#6CCEF0"
   opacity="1.000000"
   stroke="none"
   d=" M495.391541,933.325806   C497.598663,933.526550 500.087006,933.950500 502.860535,934.621216   C500.654724,934.428345 498.163727,933.988647 495.391541,933.325806  z"
   id="path28" />
<path
   fill="#6CCEF0"
   opacity="1.000000"
   stroke="none"
   d=" M488.330688,931.142334   C488.926361,931.109009 489.800720,931.249634 490.919983,931.621704   C490.313049,931.674194 489.461182,931.495239 488.330688,931.142334  z"
   id="path29" />
<path
   fill="#6CCEF0"
   opacity="1.000000"
   stroke="none"
   d=" M491.331055,932.009033   C491.954285,931.993408 492.836975,932.179382 493.899780,932.656372   C493.250092,932.701782 492.420319,932.456177 491.331055,932.009033  z"
   id="path30" />


<path
   fill="#06417B"
   opacity="1.000000"
   stroke="none"
   d=" M403.767822,637.097900   C404.035614,695.062500 404.057892,753.074158 404.147522,811.554077   C403.792542,808.945129 403.006165,805.868286 403.002167,802.790466   C402.934296,750.381958 402.954895,697.973328 402.994537,645.564758   C402.996643,642.758057 403.338531,639.951538 403.767822,637.097900  z"
   id="path33" />
<path
   fill="#346EA7"
   opacity="1.000000"
   stroke="none"
   d=" M568.682434,788.043518   C568.882202,787.724365 569.532837,787.072754 570.183044,787.073120   C591.283020,787.085388 612.382935,787.160583 633.727112,787.574463   C612.358582,787.953308 590.745850,787.984131 568.682434,788.043518  z"
   id="path34" />
<path
   fill="#102177"
   opacity="1.000000"
   stroke="none"
   d=" M613.722412,739.940735   C604.120789,739.941162 594.981445,739.941162 584.579407,739.941162   C590.567444,725.005798 596.187317,710.988770 601.807190,696.971802   C602.255676,697.000671 602.704102,697.029602 603.152588,697.058472   C608.705811,711.016724 614.259094,724.974976 620.060547,739.556946   C617.712769,739.710083 615.948669,739.825195 613.722412,739.940735  z"
   id="path35" />
</svg>
